<svg class="amazon" xmlns="http://www.w3.org/2000/svg" viewBox="0 0 15 15">
  <path
    fill="#02a7e5"
    d="m13.69653,12.31364c-0.48343,-0.65954 -1.00139,-1.19706 -1.00139,-2.4252l0,-4.07922c0,-1.72884 0.12661,-3.31495 -1.16253,-4.5051c-1.0152,-0.96341 -2.7003,-1.30411 -3.98944,-1.30411c-2.52074,0 -5.33269,0.92888 -5.92316,4.00901c-0.06216,0.32689 0.17841,0.49839 0.39595,0.54674l2.56678,0.27394c0.24171,-0.01151 0.41437,-0.24517 0.46041,-0.47998c0.221,-1.06124 1.11995,-1.57115 2.12939,-1.57115c0.54558,0 1.16368,0.19567 1.48597,0.6791c0.37178,0.53868 0.32229,1.27764 0.32229,1.89919l0,0.3407c-1.53546,0.17035 -3.544,0.282 -4.98163,0.90585c-1.65862,0.71018 -2.82346,2.15471 -2.82346,4.27835c0,2.72102 1.73344,4.08153 3.96412,4.08153c1.88307,0 2.91324,-0.43969 4.36583,-1.90264c0.48343,0.69061 0.63997,1.02211 1.51935,1.74495a0.55249,0.55249 0 0 0 0.62501,-0.06216l0.00691,0.00576c0.52947,-0.46501 1.48942,-1.28915 2.0304,-1.73804c0.21639,-0.17611 0.17841,-0.46041 0.00921,-0.69752zm-5.21183,-1.17519c-0.42012,0.73781 -1.09002,1.19016 -1.83358,1.19016c-1.0152,0 -1.61143,-0.76658 -1.61143,-1.89919c0,-2.22953 2.0258,-2.63584 3.93995,-2.63584l0,0.5663c0,1.01981 0.02532,1.86926 -0.49494,2.77857z"
  />
</svg>
