<svg xmlns="http://www.w3.org/2000/svg" viewBox="0 0 172 172">
  <path fill="none" d="M-1-1h582v402H-1z"/>
  <g>
    <g fill-rule="evenodd">
      <path fill="#02a9ff"
            d="M117.453 117.543V29.361c0-5.053-2.788-7.842-7.842-7.842H92.358c-5.054 0-7.843 2.789-7.843 7.842V71.24c0 1.18 11.364 6.656 11.66 7.814 8.658 33.828 1.882 60.902-6.325 62.165 13.419.664 14.895 7.116 4.9 2.708 1.529-18.05 7.495-18.014 24.648-.664.147.15 3.517 7.219 3.727 7.219h40.511c5.054 0 7.842-2.788 7.842-7.842v-17.253c0-5.054-2.788-7.843-7.842-7.843h-46.183z"/>
      <path fill="#fefefe"
            d="M45.833 21.519L.523 150.48h35.202l7.668-22.307h38.34l7.494 22.307h35.029L79.119 21.519H45.833zm5.577 78.074l10.978-35.726 12.025 35.726H51.41z"/>
    </g>
  </g>
</svg>
