<svg xmlns="http://www.w3.org/2000/svg" viewBox="0 0 5120 5120">
  <path fill="none" d="M-1-1h582v402H-1z"/>
  <g>
    <g fill="#fff">
      <path d="m1634.501099,4717.688477c-780.296509,-35.282715 -1116.841553,-126.204102 -1339.39566,-359.615234c-103.134613,-109.919922 -164.201355,-221.196777 -198.127106,-360.971436c-28.497742,-123.490723 -50.210358,-398.968994 -44.782196,-582.169189l4.071136,-156.059082l1221.333191,0l9.499146,115.3479c17.641602,237.481445 82.779297,308.047607 310.761475,339.259277c156.059326,21.712891 1780.432617,21.712891 1940.562988,0c237.481445,-32.568604 289.048584,-89.564209 289.048584,-325.688721c0,-283.620605 -44.782227,-303.976318 -711.087158,-325.688721c-219.840332,-8.142578 -583.526123,-23.06958 -807.437012,-33.926025s-571.312622,-25.783691 -773.511108,-33.925781c-419.324341,-16.284668 -654.092041,-42.068359 -819.650513,-90.921631c-153.345093,-43.425049 -233.410309,-88.20752 -340.61615,-189.985107c-214.411804,-200.841309 -284.977539,-439.679932 -284.977539,-959.424805c0,-663.590942 141.131561,-1001.493164 496.675232,-1184.692871c218.483032,-112.634033 390.826904,-143.845886 956.711182,-168.272583c435.608887,-17.64151 1982.630859,-9.499207 2203.827881,13.570404c591.667725,61.066681 905.143311,208.983673 1043.561279,491.247284c88.207031,180.485657 137.05957,468.177551 127.560547,751.798157l-4.070313,122.133301l-1221.332764,0l-8.142334,-61.06665c-5.427979,-33.925781 -13.570557,-90.921631 -18.998535,-128.918457c-10.856445,-81.422119 -80.065186,-157.41626 -162.844238,-183.199951c-138.417969,-40.711182 -1549.736206,-50.210205 -1891.709595,-12.213135c-202.198486,21.712402 -257.836914,61.066406 -287.691772,202.198242s12.213379,274.121582 103.134766,328.402832c73.279907,42.068359 389.469604,65.137939 1411.318115,99.063721c880.717529,29.854736 1196.906982,51.567627 1416.746826,96.349609c489.889648,100.42041 709.729492,328.402832 783.009766,806.07959c23.069336,154.702393 25.783203,607.952393 4.070313,796.580566c-18.998047,169.629639 -67.851563,360.971924 -120.775391,473.605957c-54.28125,112.634277 -196.770508,265.97998 -313.475586,335.188477c-170.986328,100.420898 -371.828125,142.489258 -840.005615,172.344238c-282.263428,18.998047 -1813.001099,28.49707 -2133.261841,13.569824z"/>
    </g>
  </g>
</svg>
